# xmcd
#
# Track frame offsets: 
#        150
#        16111
#        26266
#        46903
#        55940
#
# Disc length: 1083 seconds
#
# Revision: 0
# Processed by: cddbd v1.5.2PL0 Copyright (c) Steve Scherf et al.
# Submitted via: ExactAudioCopyFreeDBPlugin 1.0
#
DISCID=2e043905
DTITLE=Audrey et Les Faces B - Oui Madame !!!
DYEAR=2011
DGENRE=Swing
TTITLE0=(Nothing's Too Good) For My Baby
TTITLE1=Mona
TTITLE2=The Nearness Of You
TTITLE3=Les Ognons
TTITLE4=Night Time Is The Right Time
EXTD=
EXTT0=
EXTT1=
EXTT2=
EXTT3=
EXTT4=
PLAYORDER=
